<svg width="20" height="21" viewBox="0 0 20 21" fill="none" xmlns="http://www.w3.org/2000/svg">
<path d="M3.85 15.6C4.7 14.95 5.65 14.4375 6.7 14.0625C7.75 13.6875 8.85 13.5 10 13.5C11.15 13.5 12.25 13.6875 13.3 14.0625C14.35 14.4375 15.3 14.95 16.15 15.6C16.7333 14.9167 17.1875 14.1417 17.5125 13.275C17.8375 12.4083 18 11.4833 18 10.5C18 8.28333 17.2208 6.39583 15.6625 4.8375C14.1042 3.27917 12.2167 2.5 10 2.5C7.78333 2.5 5.89583 3.27917 4.3375 4.8375C2.77917 6.39583 2 8.28333 2 10.5C2 11.4833 2.1625 12.4083 2.4875 13.275C2.8125 14.1417 3.26667 14.9167 3.85 15.6ZM10 11.5C9.01667 11.5 8.1875 11.1625 7.5125 10.4875C6.8375 9.8125 6.5 8.98333 6.5 8C6.5 7.01667 6.8375 6.1875 7.5125 5.5125C8.1875 4.8375 9.01667 4.5 10 4.5C10.9833 4.5 11.8125 4.8375 12.4875 5.5125C13.1625 6.1875 13.5 7.01667 13.5 8C13.5 8.98333 13.1625 9.8125 12.4875 10.4875C11.8125 11.1625 10.9833 11.5 10 11.5ZM10 20.5C8.61667 20.5 7.31667 20.2375 6.1 19.7125C4.88333 19.1875 3.825 18.475 2.925 17.575C2.025 16.675 1.3125 15.6167 0.7875 14.4C0.2625 13.1833 0 11.8833 0 10.5C0 9.11667 0.2625 7.81667 0.7875 6.6C1.3125 5.38333 2.025 4.325 2.925 3.425C3.825 2.525 4.88333 1.8125 6.1 1.2875C7.31667 0.7625 8.61667 0.5 10 0.5C11.3833 0.5 12.6833 0.7625 13.9 1.2875C15.1167 1.8125 16.175 2.525 17.075 3.425C17.975 4.325 18.6875 5.38333 19.2125 6.6C19.7375 7.81667 20 9.11667 20 10.5C20 11.8833 19.7375 13.1833 19.2125 14.4C18.6875 15.6167 17.975 16.675 17.075 17.575C16.175 18.475 15.1167 19.1875 13.9 19.7125C12.6833 20.2375 11.3833 20.5 10 20.5Z" fill="#F9F9F9"/>
</svg>
