<svg width="22" height="25" viewBox="0 0 22 25" fill="none" xmlns="http://www.w3.org/2000/svg">
<mask id="mask0_68_259" style="mask-type:alpha" maskUnits="userSpaceOnUse" x="-2" y="0" width="24" height="25">
<rect x="-2" y="0.5" width="24" height="24" fill="#D9D9D9"/>
</mask>
<g mask="url(#mask0_68_259)">
<path d="M3.85 17.6C4.7 16.95 5.65 16.4375 6.7 16.0625C7.75 15.6875 8.85 15.5 10 15.5C11.15 15.5 12.25 15.6875 13.3 16.0625C14.35 16.4375 15.3 16.95 16.15 17.6C16.7333 16.9167 17.1875 16.1417 17.5125 15.275C17.8375 14.4083 18 13.4833 18 12.5C18 10.2833 17.2208 8.39583 15.6625 6.8375C14.1042 5.27917 12.2167 4.5 10 4.5C7.78333 4.5 5.89583 5.27917 4.3375 6.8375C2.77917 8.39583 2 10.2833 2 12.5C2 13.4833 2.1625 14.4083 2.4875 15.275C2.8125 16.1417 3.26667 16.9167 3.85 17.6ZM10 13.5C9.01667 13.5 8.1875 13.1625 7.5125 12.4875C6.8375 11.8125 6.5 10.9833 6.5 10C6.5 9.01667 6.8375 8.1875 7.5125 7.5125C8.1875 6.8375 9.01667 6.5 10 6.5C10.9833 6.5 11.8125 6.8375 12.4875 7.5125C13.1625 8.1875 13.5 9.01667 13.5 10C13.5 10.9833 13.1625 11.8125 12.4875 12.4875C11.8125 13.1625 10.9833 13.5 10 13.5ZM10 22.5C8.61667 22.5 7.31667 22.2375 6.1 21.7125C4.88333 21.1875 3.825 20.475 2.925 19.575C2.025 18.675 1.3125 17.6167 0.7875 16.4C0.2625 15.1833 0 13.8833 0 12.5C0 11.1167 0.2625 9.81667 0.7875 8.6C1.3125 7.38333 2.025 6.325 2.925 5.425C3.825 4.525 4.88333 3.8125 6.1 3.2875C7.31667 2.7625 8.61667 2.5 10 2.5C11.3833 2.5 12.6833 2.7625 13.9 3.2875C15.1167 3.8125 16.175 4.525 17.075 5.425C17.975 6.325 18.6875 7.38333 19.2125 8.6C19.7375 9.81667 20 11.1167 20 12.5C20 13.8833 19.7375 15.1833 19.2125 16.4C18.6875 17.6167 17.975 18.675 17.075 19.575C16.175 20.475 15.1167 21.1875 13.9 21.7125C12.6833 22.2375 11.3833 22.5 10 22.5Z" fill="#142444"/>
</g>
</svg>
