<svg width="21" height="20" viewBox="0 0 21 20" fill="none" xmlns="http://www.w3.org/2000/svg">
<path d="M6.65 15L10.25 11.4L13.85 15L15.25 13.6L11.65 10L15.25 6.4L13.85 5L10.25 8.6L6.65 5L5.25 6.4L8.85 10L5.25 13.6L6.65 15ZM10.25 20C8.86667 20 7.56667 19.7375 6.35 19.2125C5.13333 18.6875 4.075 17.975 3.175 17.075C2.275 16.175 1.5625 15.1167 1.0375 13.9C0.5125 12.6833 0.25 11.3833 0.25 10C0.25 8.61667 0.5125 7.31667 1.0375 6.1C1.5625 4.88333 2.275 3.825 3.175 2.925C4.075 2.025 5.13333 1.3125 6.35 0.7875C7.56667 0.2625 8.86667 0 10.25 0C11.6333 0 12.9333 0.2625 14.15 0.7875C15.3667 1.3125 16.425 2.025 17.325 2.925C18.225 3.825 18.9375 4.88333 19.4625 6.1C19.9875 7.31667 20.25 8.61667 20.25 10C20.25 11.3833 19.9875 12.6833 19.4625 13.9C18.9375 15.1167 18.225 16.175 17.325 17.075C16.425 17.975 15.3667 18.6875 14.15 19.2125C12.9333 19.7375 11.6333 20 10.25 20Z" fill="#C2C2C2"/>
</svg>
