<svg width="25" height="24" viewBox="0 0 25 24" fill="none" xmlns="http://www.w3.org/2000/svg">
<path d="M10.6333 17.6L20.0333 8.2L18.1667 6.33333L10.6333 13.8667L6.83333 10.0667L4.96667 11.9333L10.6333 17.6ZM3.16667 24C2.43333 24 1.80556 23.7389 1.28333 23.2167C0.761111 22.6944 0.5 22.0667 0.5 21.3333V2.66667C0.5 1.93333 0.761111 1.30556 1.28333 0.783333C1.80556 0.261111 2.43333 0 3.16667 0H21.8333C22.5667 0 23.1944 0.261111 23.7167 0.783333C24.2389 1.30556 24.5 1.93333 24.5 2.66667V21.3333C24.5 22.0667 24.2389 22.6944 23.7167 23.2167C23.1944 23.7389 22.5667 24 21.8333 24H3.16667Z" fill="#0C94D4"/>
</svg>
