<svg width="21" height="21" viewBox="0 0 21 21" fill="none" xmlns="http://www.w3.org/2000/svg">
<mask id="mask0_161_300" style="mask-type:luminance" maskUnits="userSpaceOnUse" x="0" y="0" width="21" height="21">
<path d="M20.0547 0.499878H0.0546875V20.4999H20.0547V0.499878Z" fill="white"/>
</mask>
<g mask="url(#mask0_161_300)">
<path d="M19.6547 10.7272C19.6547 10.0181 19.5911 9.33627 19.4729 8.68167H10.0547V12.5499H15.4365C15.2047 13.7999 14.5002 14.859 13.4411 15.5681V18.0772H16.6729C18.5638 16.3363 19.6547 13.7726 19.6547 10.7272Z" fill="#4285F4"/>
<path d="M10.0546 20.4999C12.7546 20.4999 15.0182 19.6044 16.6727 18.0772L13.4409 15.5681C12.5455 16.1681 11.4 16.5226 10.0546 16.5226C7.44996 16.5226 5.24546 14.7635 4.45906 12.3999H1.11816V14.9908C2.76366 18.259 6.14546 20.4999 10.0546 20.4999Z" fill="#34A853"/>
<path d="M4.45919 12.3999C4.25919 11.7999 4.14559 11.159 4.14559 10.4999C4.14559 9.84077 4.25919 9.19987 4.45919 8.59987V6.00897H1.11829C0.441087 7.35897 0.0546875 8.88627 0.0546875 10.4999C0.0546875 12.1135 0.441087 13.6408 1.11829 14.9908L4.45919 12.3999Z" fill="#FBBC04"/>
<path d="M10.0546 4.47718C11.5227 4.47718 12.8409 4.98168 13.8773 5.97258L16.7455 3.10438C15.0137 1.49078 12.75 0.499878 10.0546 0.499878C6.14546 0.499878 2.76366 2.74078 1.11816 6.00898L4.45906 8.59988C5.24546 6.23628 7.44996 4.47718 10.0546 4.47718Z" fill="#E94235"/>
</g>
</svg>
