<svg width="1440" height="705" viewBox="0 0 1440 705" fill="none" xmlns="http://www.w3.org/2000/svg">
<line x1="4.37114e-08" y1="0.5" x2="1440" y2="0.500126" stroke="#E3E3E3"/>
<line x1="4.37114e-08" y1="32.5" x2="1440" y2="32.5001" stroke="#E3E3E3"/>
<line x1="4.37114e-08" y1="64.5002" x2="1440" y2="64.5004" stroke="#E3E3E3"/>
<line x1="4.37114e-08" y1="96.5004" x2="1440" y2="96.5005" stroke="#E3E3E3"/>
<line x1="4.37114e-08" y1="128.5" x2="1440" y2="128.501" stroke="#E3E3E3"/>
<line x1="4.37114e-08" y1="160.501" x2="1440" y2="160.501" stroke="#E3E3E3"/>
<line x1="4.37114e-08" y1="192.501" x2="1440" y2="192.501" stroke="#E3E3E3"/>
<line x1="4.37114e-08" y1="224.501" x2="1440" y2="224.501" stroke="#E3E3E3"/>
<line x1="4.37114e-08" y1="256.501" x2="1440" y2="256.501" stroke="#E3E3E3"/>
<line x1="4.37114e-08" y1="288.501" x2="1440" y2="288.501" stroke="#E3E3E3"/>
<line x1="4.37114e-08" y1="320.501" x2="1440" y2="320.501" stroke="#E3E3E3"/>
<line x1="4.37114e-08" y1="352.501" x2="1440" y2="352.501" stroke="#E3E3E3"/>
<line x1="4.37114e-08" y1="384.501" x2="1440" y2="384.502" stroke="#E3E3E3"/>
<line x1="4.37114e-08" y1="416.502" x2="1440" y2="416.502" stroke="#E3E3E3"/>
<line x1="4.37114e-08" y1="448.502" x2="1440" y2="448.502" stroke="#E3E3E3"/>
<line x1="4.37114e-08" y1="480.502" x2="1440" y2="480.502" stroke="#E3E3E3"/>
<line x1="4.37114e-08" y1="512.502" x2="1440" y2="512.502" stroke="#E3E3E3"/>
<line x1="4.37114e-08" y1="544.502" x2="1440" y2="544.502" stroke="#E3E3E3"/>
<line x1="4.37114e-08" y1="576.502" x2="1440" y2="576.502" stroke="#E3E3E3"/>
<line x1="4.37114e-08" y1="608.502" x2="1440" y2="608.503" stroke="#E3E3E3"/>
<line x1="4.37114e-08" y1="640.502" x2="1440" y2="640.503" stroke="#E3E3E3"/>
<line x1="4.37114e-08" y1="672.503" x2="1440" y2="672.503" stroke="#E3E3E3"/>
<line x1="4.37114e-08" y1="704.503" x2="1440" y2="704.503" stroke="#E3E3E3"/>
<rect x="1313" y="321" width="147" height="31" fill="#142444"/>
<rect x="573" y="1" width="147" height="31" fill="#142444"/>
<rect x="-19" y="545" width="147" height="31" fill="#142444"/>
<rect x="129" y="289" width="147" height="31" fill="#142444"/>
<rect x="-20" y="65" width="148" height="31" fill="#0C94D4"/>
<line x1="128.5" y1="1" x2="128.5" y2="705" stroke="#E3E3E3"/>
<line x1="276.5" y1="1" x2="276.5" y2="705" stroke="#E3E3E3"/>
<line x1="424.5" y1="1" x2="424.5" y2="705" stroke="#E3E3E3"/>
<line x1="572.5" y1="1" x2="572.5" y2="705" stroke="#E3E3E3"/>
<line x1="720.5" y1="1" x2="720.5" y2="705" stroke="#E3E3E3"/>
<line x1="868.5" y1="1" x2="868.5" y2="705" stroke="#E3E3E3"/>
<line x1="1016.5" y1="1" x2="1016.5" y2="705" stroke="#E3E3E3"/>
<rect x="1017" y="673" width="147" height="31" fill="#0C94D4"/>
<rect x="425" y="609" width="147" height="31" fill="#0C94D4"/>
<rect x="1165" y="33" width="147" height="31" fill="#0C94D4"/>
<rect x="1165" y="481" width="147" height="31" fill="#0C94D4"/>
<line x1="1164.5" y1="1" x2="1164.5" y2="705" stroke="#E3E3E3"/>
<line x1="1312.5" y1="1" x2="1312.5" y2="705" stroke="#E3E3E3"/>
</svg>
