<svg width="22" height="15" viewBox="0 0 22 15" fill="none" xmlns="http://www.w3.org/2000/svg">
<path opacity="0.6" d="M11 11.5607C12.25 11.5607 13.3125 11.1575 14.1875 10.351C15.0625 9.54444 15.5 8.56509 15.5 7.41292C15.5 6.26075 15.0625 5.2814 14.1875 4.47488C13.3125 3.66836 12.25 3.26509 11 3.26509C9.75 3.26509 8.6875 3.66836 7.8125 4.47488C6.9375 5.2814 6.5 6.26075 6.5 7.41292C6.5 8.56509 6.9375 9.54444 7.8125 10.351C8.6875 11.1575 9.75 11.5607 11 11.5607ZM11 9.90162C10.25 9.90162 9.6125 9.65966 9.0875 9.17575C8.5625 8.69183 8.3 8.10422 8.3 7.41292C8.3 6.72162 8.5625 6.13401 9.0875 5.65009C9.6125 5.16618 10.25 4.92423 11 4.92423C11.75 4.92423 12.3875 5.16618 12.9125 5.65009C13.4375 6.13401 13.7 6.72162 13.7 7.41292C13.7 8.10422 13.4375 8.69183 12.9125 9.17575C12.3875 9.65966 11.75 9.90162 11 9.90162ZM11 14.326C8.56667 14.326 6.35 13.6999 4.35 12.4479C2.35 11.1959 0.9 9.51756 0 7.41292C0.9 5.30828 2.35 3.62995 4.35 2.37792C6.35 1.12589 8.56667 0.499878 11 0.499878C13.4333 0.499878 15.65 1.12589 17.65 2.37792C19.65 3.62995 21.1 5.30828 22 7.41292C21.1 9.51756 19.65 11.1959 17.65 12.4479C15.65 13.6999 13.4333 14.326 11 14.326Z" fill="#2C2C2C"/>
</svg>
